<svg width="512" height="633" viewBox="0 0 512 633" fill="none" xmlns="http://www.w3.org/2000/svg">
<path d="M270 204V175H205V138.8L261.2 58H289.2L229 145.4V153H270V120H295V204H270ZM307.722 204V179.8L353.322 134C359.722 127.467 364.455 121.6 367.522 116.4C370.589 111.067 372.122 105.6 372.122 100C372.122 93.2 370.255 87.9333 366.522 84.2C362.789 80.3333 357.722 78.4 351.322 78.4C344.255 78.4 338.722 80.4667 334.722 84.6C330.722 88.6 328.722 94.2 328.722 101.4H303.722C303.855 92.0667 305.855 84.0667 309.722 77.4C313.722 70.6 319.322 65.3333 326.522 61.6C333.722 57.8667 342.122 56 351.722 56C360.922 56 368.922 57.7333 375.722 61.2C382.522 64.6667 387.789 69.5333 391.522 75.8C395.255 82.0667 397.122 89.5333 397.122 98.2C397.122 107.133 394.789 115.867 390.122 124.4C385.589 132.8 378.255 141.867 368.122 151.6L337.722 181.4H398.922V204H307.722ZM412.444 204V58H437.444V180.8H499.444V204H412.444Z" fill="white"/>
<path d="M108 517.4C78.4 517.4 54.9333 509.267 37.6 493C20.5333 476.467 12 454.333 12 426.6H62C62 441.267 66.1333 452.733 74.4 461C82.6667 469.267 93.8667 473.4 108 473.4C122.133 473.4 133.333 469.4 141.6 461.4C149.867 453.133 154 441.667 154 427V267.4H86V221H204V427C204 455 195.333 477.133 178 493.4C160.933 509.4 137.6 517.4 108 517.4ZM227.044 513V221H402.244V264.6H276.244V340.6H388.244V383.8H276.244V469.4H402.244V513H227.044Z" fill="black"/>
</svg>
