<svg width="623" height="693" viewBox="0 0 623 693" fill="none" xmlns="http://www.w3.org/2000/svg">
<path d="M270 264V235H205V198.8L261.2 118H289.2L229 205.4V213H270V180H295V264H270ZM307.722 264V239.8L353.322 194C359.722 187.467 364.455 181.6 367.522 176.4C370.589 171.067 372.122 165.6 372.122 160C372.122 153.2 370.255 147.933 366.522 144.2C362.789 140.333 357.722 138.4 351.322 138.4C344.255 138.4 338.722 140.467 334.722 144.6C330.722 148.6 328.722 154.2 328.722 161.4H303.722C303.855 152.067 305.855 144.067 309.722 137.4C313.722 130.6 319.322 125.333 326.522 121.6C333.722 117.867 342.122 116 351.722 116C360.922 116 368.922 117.733 375.722 121.2C382.522 124.667 387.789 129.533 391.522 135.8C395.255 142.067 397.122 149.533 397.122 158.2C397.122 167.133 394.789 175.867 390.122 184.4C385.589 192.8 378.255 201.867 368.122 211.6L337.722 241.4H398.922V264H307.722Z" fill="#898989"/>
<path d="M424.2 408V116H474.2V361.6H598.2V408H424.2Z" fill="#898989"/>
<path d="M108 577.4C78.4 577.4 54.9333 569.267 37.6 553C20.5333 536.467 12 514.333 12 486.6H62C62 501.267 66.1333 512.733 74.4 521C82.6667 529.267 93.8667 533.4 108 533.4C122.133 533.4 133.333 529.4 141.6 521.4C149.867 513.133 154 501.667 154 487V327.4H86V281H204V487C204 515 195.333 537.133 178 553.4C160.933 569.4 137.6 577.4 108 577.4ZM227.044 573V281H402.244V324.6H276.244V400.6H388.244V443.8H276.244V529.4H402.244V573H227.044Z" fill="black"/>
</svg>
